<svg width="33" height="33" viewBox="0 0 33 33" fill="none" xmlns="http://www.w3.org/2000/svg">
<g clip-path="url(#clip0_11552_13)">
<path d="M22.8707 0.0411605C22.8027 -0.0348395 20.3527 0.0711606 18.2207 2.38516C16.0887 4.69716 16.4167 7.34916 16.4647 7.41716C16.5127 7.48516 19.5047 7.59116 21.4147 4.90116C23.3247 2.21116 22.9387 0.119161 22.8707 0.0411605ZM29.4987 23.5072C29.4027 23.3152 24.8487 21.0392 25.2727 16.6632C25.6967 12.2872 28.6227 11.0852 28.6687 10.9552C28.7147 10.8252 27.4747 9.37516 26.1607 8.64116C25.1957 8.12416 24.1281 7.82771 23.0347 7.77316C22.8187 7.76716 22.0687 7.58316 20.5267 8.00516C19.5107 8.28316 17.2207 9.18316 16.5907 9.21916C15.9587 9.25516 14.0787 8.17516 12.0567 7.88916C10.7627 7.63916 9.39072 8.15116 8.40871 8.54516C7.42871 8.93716 5.56471 10.0532 4.26071 13.0192C2.95671 15.9832 3.63871 20.6792 4.12671 22.1392C4.61471 23.5992 5.37671 25.9872 6.67271 27.7312C7.82471 29.6992 9.35272 31.0652 9.99072 31.5292C10.6287 31.9932 12.4287 32.3012 13.6767 31.6632C14.6807 31.0472 16.4927 30.6932 17.2087 30.7192C17.9227 30.7452 19.3307 31.0272 20.7727 31.7972C21.9147 32.1912 22.9947 32.0272 24.0767 31.5872C25.1587 31.1452 26.7247 29.4692 28.5527 26.0712C29.246 24.4912 29.5614 23.6365 29.4987 23.5072Z" fill="#726227"/>
<path d="M22.8707 0.0411605C22.8027 -0.0348395 20.3527 0.0711606 18.2207 2.38516C16.0887 4.69716 16.4167 7.34916 16.4647 7.41716C16.5127 7.48516 19.5047 7.59116 21.4147 4.90116C23.3247 2.21116 22.9387 0.119161 22.8707 0.0411605ZM29.4987 23.5072C29.4027 23.3152 24.8487 21.0392 25.2727 16.6632C25.6967 12.2872 28.6227 11.0852 28.6687 10.9552C28.7147 10.8252 27.4747 9.37516 26.1607 8.64116C25.1957 8.12416 24.1281 7.82771 23.0347 7.77316C22.8187 7.76716 22.0687 7.58316 20.5267 8.00516C19.5107 8.28316 17.2207 9.18316 16.5907 9.21916C15.9587 9.25516 14.0787 8.17516 12.0567 7.88916C10.7627 7.63916 9.39072 8.15116 8.40871 8.54516C7.42871 8.93716 5.56471 10.0532 4.26071 13.0192C2.95671 15.9832 3.63871 20.6792 4.12671 22.1392C4.61471 23.5992 5.37671 25.9872 6.67271 27.7312C7.82471 29.6992 9.35272 31.0652 9.99072 31.5292C10.6287 31.9932 12.4287 32.3012 13.6767 31.6632C14.6807 31.0472 16.4927 30.6932 17.2087 30.7192C17.9227 30.7452 19.3307 31.0272 20.7727 31.7972C21.9147 32.1912 22.9947 32.0272 24.0767 31.5872C25.1587 31.1452 26.7247 29.4692 28.5527 26.0712C29.246 24.4912 29.5614 23.6365 29.4987 23.5072Z" fill="#726227"/>
</g>
<defs>
<clipPath id="clip0_11552_13">
<rect width="32" height="32" fill="white" transform="translate(0.506714 0.0251465)"/>
</clipPath>
</defs>
</svg>
