<svg width="33" height="33" viewBox="0 0 33 33" fill="none" xmlns="http://www.w3.org/2000/svg">
<g clip-path="url(#clip0_11552_10)">
<path d="M31.5967 13.1411C31.7835 14.215 31.8765 15.3031 31.8747 16.3931C31.8747 21.2611 30.1347 25.3771 27.1067 28.1631H27.1107C24.4627 30.6091 20.8227 32.0251 16.5067 32.0251C12.2633 32.0251 8.19359 30.3394 5.19301 27.3388C2.19242 24.3383 0.506714 20.2686 0.506714 16.0251C0.506714 11.7817 2.19242 7.712 5.19301 4.71142C8.19359 1.71084 12.2633 0.0251259 16.5067 0.0251259C20.4782 -0.0191019 24.3132 1.47276 27.2107 4.18913L22.6427 8.75713C20.9911 7.18363 18.7876 6.32175 16.5067 6.35713C12.3327 6.35713 8.78671 9.17313 7.52271 12.9651C6.8537 14.9523 6.8537 17.1039 7.52271 19.0911H7.52871C8.79871 22.8771 12.3387 25.6931 16.5127 25.6931C18.6687 25.6931 20.5207 25.1411 21.9567 24.1651H21.9507C22.7847 23.6129 23.4981 22.8974 24.0477 22.0617C24.5974 21.226 24.9719 20.2876 25.1487 19.3031H16.5067V13.1431L31.5967 13.1411Z" fill="#726227"/>
</g>
<defs>
<clipPath id="clip0_11552_10">
<rect width="32" height="32" fill="white" transform="translate(0.506714 0.0251465)"/>
</clipPath>
</defs>
</svg>
